<?xml version="1.0" encoding="utf-8"?>
<!-- Generator: Adobe Illustrator 24.1.2, SVG Export Plug-In . SVG Version: 6.00 Build 0)  -->
<svg version="1.1" id="_x33_" xmlns="http://www.w3.org/2000/svg" xmlns:xlink="http://www.w3.org/1999/xlink" x="0px" y="0px"
	 viewBox="0 0 191.3233032 51.2763786" style="enable-background:new 0 0 191.3233032 51.2763786;" xml:space="preserve">
<style type="text/css">
	.st0{fill:#FFFFFF;}
</style>
<path class="st0" d="M54.8623199,27.9253693v-4.5743599c0-4.7340965-2.7124977-7.8725567-7.3933487-7.8725567
	c-3.5639915,0-6.6492043,1.8618641-6.6492043,5.372179v9.5746841c0,3.510746,3.0852127,5.3721771,6.6492043,5.3721771
	C52.1498222,35.797493,54.8623199,32.6594658,54.8623199,27.9253693z M89.3312683,39.3614845
	c-3.2445145,0-4.6808472-1.8618622-4.9998932-4.5211143h-0.2657928C82.8950424,38.0316429,80.1825485,40,75.7674942,40
	c-5.6384048,0-9.3084564-3.1384621-9.3084564-8.2980881c0-5.2128754,3.7232971-8.0851078,11.9148941-8.0851078h5.5851593V21.170105
	c0-3.8830338-2.1809082-5.850956-6.2232437-5.850956c-3.6172333,0-5.7981415,1.4891453-7.2340393,3.9358463l-3.1384583-2.4999466
	c1.4363327-2.8722324,5.0531311-5.4786692,10.7447891-5.4786692c6.6487732,0,10.7975998,3.4575005,10.7975998,9.4681921v14.5213318
	h3.6704788v4.0955811H89.3312683z M83.9590912,31.2763786v-4.2553177h-5.5319138
	c-4.6808548,0-6.8617554,1.3830853-6.8617554,3.9362774v1.1168575c0,2.6596832,2.0744095,4.0427704,5.3721771,4.0427704
	C81.0336151,36.1169662,83.9590912,34.0425529,83.9590912,31.2763786z M98.4280396,34.6806335l3.1384659-2.818985
	c2.4999466,2.6592484,5.4786682,4.2020721,9.7339859,4.2020721c3.98909,0,6.8085098-1.3830872,6.8085098-4.4150543
	c0-2.6064377-2.127655-3.2977657-4.574791-3.6700516l-4.308136-0.6385136
	c-4.0960083-0.584837-9.3088837-1.8614311-9.3088837-7.6595745c0-5.5319157,4.681282-8.4041471,11.3833008-8.4041471
	c4.9998932,0,8.6699448,1.6488819,11.2231369,4.3618097l-3.0319748,2.9787235
	c-1.3294067-1.5956364-3.7765427-3.4042549-8.4041443-3.4042549c-4.0423355,0-6.2764893,1.4358997-6.2764893,4.0423374
	c0,2.6596813,2.1809082,3.3510094,4.5743637,3.7237282l4.3085632,0.6380806
	c4.1488266,0.5852699,9.3084564,1.861866,9.3084564,7.6595745c0,5.4786682-4.5743637,8.7236214-11.808403,8.7236214
	C105.3962936,40,101.1409683,37.9251518,98.4280396,34.6806335z M130.3437958,25.6912193
	c0-8.8296795,5.1596375-14.4148397,12.7127228-14.4148397s12.3936615,5.5851603,12.3936615,13.5105295v2.0744133h-20v1.1172924
	c0,4.5743599,3.0319672,7.8721237,8.0318604,7.8721237c3.5639954,0,6.2764893-1.7021255,7.7660675-4.5211143l3.3510132,2.6064377
	C152.84375,37.4468079,148.9607086,40,143.4288025,40C135.290451,40,130.3437958,34.4148407,130.3437958,25.6912193z
	 M135.4501801,23.0315361v0.4255314h14.8403778v-0.5848351c0-4.5747929-2.8722382-7.6595745-7.1808014-7.6595745
	C138.6418915,15.2126579,135.4501801,18.5104218,135.4501801,23.0315361z M40.819767,0v16.489254h0.2662277
	c1.64888-3.3510103,4.4146233-5.2128744,8.4041443-5.2128744c6.542717,0,10.638298,5.2128744,10.638298,14.3615942
	C60.128437,34.7871246,56.032856,40,49.490139,40c-3.989521,0-6.7552643-1.861866-8.4041443-5.2128754H40.819767v4.5743599
	h-4.9466476L35.8731232,0H0v51.2763786h191.3233032V0H40.819767z"/>
</svg>
